<svg xmlns="http://www.w3.org/2000/svg" viewBox="0 0 512 512" width="512" height="512">
  <defs>
    <linearGradient id="bg" x1="0" y1="0" x2="0" y2="1">
      <stop offset="0" stop-color="#0D6B5E"/>
      <stop offset="1" stop-color="#0A4A40"/>
    </linearGradient>
  </defs>
  <rect width="512" height="512" fill="url(#bg)"/>
  <g transform="translate(-9,-9) scale(0.49)">
    <path fill="#4ecdc4" d="M540,852.76c-83.54,0-162.08-32.53-221.15-91.6-59.07-59.07-91.6-137.61-91.6-221.15s32.53-162.08,91.6-221.15c59.07-59.07,137.61-91.6,221.15-91.6s162.08,32.53,221.15,91.6c59.07,59.07,91.6,137.61,91.6,221.15s-32.53,162.08-91.6,221.15c-59.07,59.07-137.61,91.6-221.15,91.6ZM540,262.64c-74.09,0-143.74,28.85-196.13,81.24-52.39,52.39-81.24,122.04-81.24,196.13s28.85,143.74,81.24,196.13c52.39,52.39,122.04,81.24,196.13,81.24s143.74-28.85,196.13-81.24c52.39-52.39,81.24-122.04,81.24-196.13s-28.85-143.74-81.24-196.13c-52.39-52.39-122.04-81.24-196.13-81.24Z"/>
    <path fill="#ffe66d" d="M527.71,447.18h-45.29c-9.37,14.83-26.11,24.7-45.2,24.7-19.09,0-35.83-9.88-45.2-24.7h-45.29c11.94,37.92,47.93,65.46,90.49,65.46,42.56,0,78.55-27.54,90.49-65.46Z"/>
    <path fill="#ffe66d" d="M733.27,632.82h-45.29c-9.37-14.83-26.11-24.7-45.2-24.7-19.09,0-35.83,9.88-45.2,24.7h-45.29c11.94-37.92,47.93-65.46,90.49-65.46,42.56,0,78.55,27.54,90.49,65.46Z"/>
    <path fill="#4ecdc4" d="M531.91,611.11c0-51.32-42.4-92.93-94.7-92.93-52.3,0-94.7,41.61-94.7,92.93,0,7.47.9,14.74,2.6,21.71h43.74c-3.09-6.61-4.81-13.96-4.81-21.71,0-28.82,23.8-52.17,53.17-52.17,29.36,0,53.17,23.36,53.17,52.17,0,7.75-1.72,15.1-4.81,21.71h43.74c1.7-6.96,2.6-14.23,2.6-21.71Z"/>
    <path fill="#4ecdc4" d="M737.48,468.89c0,51.32-42.4,92.93-94.7,92.93-52.3,0-94.7-41.61-94.7-92.93,0-7.47.9-14.74,2.6-21.71h43.74c-3.09,6.61-4.81,13.96-4.81,21.71,0,28.82,23.8,52.17,53.17,52.17,29.36,0,53.17-23.36,53.17-52.17,0-7.75-1.72-15.1-4.81-21.71h43.74c1.7,6.96,2.6,14.23,2.6,21.71Z"/>
  </g>
</svg>
